<?xml version="1.0" encoding="utf-8"?>
<svg viewBox="12.216 47.774 470.672 76.403" width="470.672" height="76.403" xmlns="http://www.w3.org/2000/svg">
  <g transform="matrix(1, 0, 0, 1, -82.518013, -19.038355)">
    <g transform="matrix(0.017725, 0, 0, -0.017725, 176.146988, 150.351822)" fill="#000000" stroke="none" style="">
      <path d="M2640 4355 l0 -355 355 0 355 0 0 -1795 0 -1795 355 0 355 0 2 1793 3 1792 363 3 362 2 0 355 0 355 -1075 0 -1075 0 0 -355z"/>
      <path d="M5230 2560 l0 -2150 355 0 355 0 0 2150 0 2150 -355 0 -355 0 0 -2150z"/>
      <path d="M6550 2560 l0 -2150 355 0 355 0 1 988 c0 946 1 985 18 947 9 -22 172 -466 362 -987 l344 -948 358 0 357 0 0 2150 0 2150 -355 0 -355 0 -2 -1072 -3 -1073 -358 1073 -359 1072 -359 0 -359 0 0 -2150z"/>
      <path d="M10104 4695 c-400 -70 -748 -392 -866 -800 l-23 -80 -3 -1225 c-2 -1095 -1 -1234 13 -1305 72 -357 325 -660 664 -796 128 -51 208 -68 351 -76 383 -20 736 163 948 491 53 81 105 201 132 301 34 124 40 270 40 1003 l0 712 -535 0 -535 0 0 -360 0 -360 175 0 176 0 -3 -407 -3 -408 -27 -55 c-31 -63 -105 -143 -158 -170 -51 -26 -152 -44 -211 -37 -72 9 -147 46 -205 103 -59 58 -91 119 -104 200 -13 78 -13 2189 0 2267 18 110 86 204 186 259 177 96 406 20 493 -162 25 -54 26 -61 29 -282 l3 -228 360 0 359 0 0 174 c0 328 -24 457 -120 651 -144 291 -387 490 -700 572 -119 32 -314 39 -436 18z"/>
      <path d="M12685 4700 c-287 -38 -547 -193 -728 -435 -159 -214 -227 -455 -207 -735 13 -176 41 -293 100 -424 90 -202 331 -474 695 -786 311 -266 454 -399 506 -469 128 -173 161 -397 81 -544 -33 -62 -99 -122 -170 -155 -49 -23 -70 -27 -147 -27 -82 0 -97 3 -157 33 -77 38 -130 92 -167 171 -25 55 -26 62 -29 284 l-3 227 -360 0 -359 0 0 -172 c1 -313 25 -466 100 -626 190 -405 583 -648 1015 -629 147 7 240 27 369 78 237 94 435 278 551 509 86 172 115 298 115 493 0 240 -49 435 -155 616 -90 154 -316 399 -588 638 -478 419 -563 505 -626 629 -64 127 -80 282 -39 391 29 79 122 172 204 203 71 27 186 30 253 6 60 -22 136 -80 172 -132 57 -83 62 -110 67 -346 l4 -218 360 0 361 0 -6 233 c-6 251 -15 323 -53 435 -98 292 -290 515 -559 649 -195 98 -388 130 -600 103z"/>
      <path d="M15873 2978 c-209 -14 -379 -83 -503 -206 -91 -91 -148 -183 -190 -309 -54 -163 -60 -236 -60 -768 0 -511 6 -595 50 -740 44 -140 130 -281 222 -360 104 -89 255 -152 417 -176 119 -17 352 -6 461 21 343 85 527 340 560 775 4 61 6 113 3 118 -2 4 -129 7 -282 7 l-279 0 -6 -22 c-3 -13 -6 -35 -6 -49 0 -48 -39 -154 -72 -197 -70 -91 -218 -121 -333 -67 -59 28 -93 67 -133 153 l-27 57 -3 453 c-3 502 -1 531 60 625 36 56 77 89 133 107 50 16 136 17 193 1 83 -23 162 -133 177 -247 3 -27 8 -59 11 -71 l4 -23 285 0 284 0 -5 73 c-16 245 -71 419 -180 573 -144 204 -412 297 -781 272z"/>
      <path d="M17914 2978 c-378 -25 -620 -224 -721 -593 l-28 -100 0 -580 c0 -530 2 -587 19 -660 75 -324 261 -529 551 -606 102 -27 345 -37 466 -20 102 15 244 61 318 104 116 65 219 197 280 357 63 162 64 175 68 755 6 674 -2 747 -105 955 -61 126 -178 247 -292 303 -142 70 -336 100 -556 85z m212 -584 c74 -26 143 -118 164 -220 7 -34 10 -208 8 -510 l-3 -459 -29 -63 c-34 -73 -95 -133 -154 -150 -22 -7 -68 -12 -104 -12 -115 0 -193 56 -252 180 -21 44 -21 55 -21 535 l0 490 26 55 c30 65 80 125 121 146 66 34 162 38 244 8z"/>
      <path d="M19230 1700 l0 -1290 285 0 284 0 3 883 3 882 22 65 c32 93 55 124 109 150 36 18 64 23 118 23 98 0 156 -26 195 -88 61 -96 61 -97 61 -1049 l0 -866 285 0 284 0 4 883 c3 777 5 888 19 935 42 136 103 185 232 186 84 1 156 -23 186 -61 11 -14 30 -56 42 -92 l23 -66 3 -892 3 -893 285 0 285 0 -4 923 c-3 890 -4 925 -24 1017 -91 412 -299 601 -693 628 -234 16 -306 -18 -442 -209 l-54 -76 -101 93 c-106 97 -160 130 -253 158 -134 40 -352 50 -440 21 -53 -18 -127 -78 -175 -144 -16 -22 -33 -41 -37 -41 -5 0 -8 47 -8 105 l0 105 -250 0 -250 0 0 -1290z"/>
      <path d="M14387 1110 c-137 -35 -242 -143 -267 -277 -43 -220 109 -411 335 -421 96 -4 169 19 244 78 200 158 155 487 -81 595 -64 29 -169 40 -231 25z"/>
    </g>
    <g transform="matrix(0.022937, 0, 0, -0.022937, 88.311539, 150.096619)" fill="#000000" stroke="none" style="">
      <path d="M280 1966 l0 -1666 430 0 c445 0 568 7 705 40 242 59 418 223 493 460 48 151 47 129 47 1170 l0 985 -23 95 c-12 53 -42 136 -68 190 -39 79 -61 109 -128 176 -95 94 -179 140 -332 181 l-99 27 -512 4 -513 3 0 -1665z m962 1099 c28 -10 61 -32 82 -55 69 -76 67 -42 64 -1066 l-3 -919 -22 -41 c-28 -52 -82 -100 -130 -114 -21 -7 -116 -14 -210 -17 l-173 -6 0 1115 c0 613 3 1118 8 1123 13 14 333 -2 384 -20z"/>
      <path d="M2340 1965 l0 -1665 708 2 707 3 0 270 0 270 -422 3 -423 2 0 440 0 440 335 0 335 0 0 265 0 265 -335 0 -335 0 0 415 0 415 415 0 415 0 0 270 0 270 -700 0 -700 0 0 -1665z"/>
      <path d="M3883 3613 c-7 -17 8 -101 173 -998 52 -286 120 -655 150 -820 30 -165 70 -383 89 -485 19 -102 63 -347 100 -545 36 -198 70 -384 76 -413 l10 -52 307 2 306 3 42 235 c24 129 108 600 189 1045 80 446 155 857 165 915 10 58 57 318 104 578 47 260 86 491 86 513 l0 39 -282 -2 -283 -3 -27 -180 c-15 -99 -39 -256 -53 -350 -14 -93 -32 -215 -40 -270 -8 -55 -56 -374 -106 -710 -50 -335 -95 -614 -100 -619 -12 -13 -14 -4 -49 234 -17 118 -37 256 -45 305 -8 50 -51 331 -95 625 -44 294 -87 578 -95 630 -9 52 -23 149 -33 215 l-18 120 -282 3 c-257 2 -283 1 -289 -15z"/>
    </g>
  </g>
</svg>